<svg xmlns="http://www.w3.org/2000/svg" viewBox="0 0 562.24 488.06"><defs><style>.cls-1{fill:#b5eacc;}.cls-2{fill:#3ddc84;}.cls-2,.cls-3,.cls-4{stroke:#000;stroke-miterlimit:10;stroke-width:8px;}.cls-3{fill:#3b9920;}.cls-4{fill:#fff;}</style></defs><g id="Layer_2" data-name="Layer 2"><circle class="cls-1" cx="346.69" cy="130.49" r="130.49"/><circle class="cls-1" cx="229.89" cy="164.26" r="101.61"/><circle class="cls-1" cx="94.99" cy="259.25" r="94.99"/><circle class="cls-1" cx="178.98" cy="357.07" r="130.49"/><circle class="cls-1" cx="460.63" cy="299.51" r="101.61"/><circle class="cls-1" cx="341.37" cy="393.07" r="94.99"/><circle class="cls-1" cx="454.01" cy="209.53" r="94.99"/></g><g id="Layer_1" data-name="Layer 1"><path class="cls-2" d="M901.85,867c61.64,0,111.61,45.38,111.61,101.36,0,0,26.21-2,27.6,6.89,1.12,7.09,7.11,95,1.07,132.61-1.53,9.44-23.57,4.42-23.72,3.78-.69-3.17,2.9,27.89-11.79,34.17S901,1149.52,901,1149.52" transform="translate(-615.09 -760.55)"/><path class="cls-2" d="M319.45,390.82h19.42a0,0,0,0,1,0,0V425.1a7.76,7.76,0,0,1-7.76,7.76H327.2a7.76,7.76,0,0,1-7.76-7.76V390.82A0,0,0,0,1,319.45,390.82Z"/><path class="cls-2" d="M902.08,867c-61.64,0-111.61,45.38-111.61,101.36,0,0-26.21-2-27.61,6.89-1.12,7.09-7.11,95-1.06,132.61,1.52,9.44,23.57,4.42,23.71,3.78.7-3.17-2.9,27.89,11.79,34.17S903,1149.52,903,1149.52" transform="translate(-615.09 -760.55)"/><path class="cls-2" d="M857.73,1151.37h3.91a7.76,7.76,0,0,1,7.76,7.76v34.28a0,0,0,0,1,0,0H850a0,0,0,0,1,0,0v-34.28A7.76,7.76,0,0,1,857.73,1151.37Z" transform="translate(1104.28 1584.23) rotate(180)"/><line class="cls-2" x1="403.46" y1="353.86" x2="398.5" y2="210.58"/><polyline class="cls-2" points="398.37 207.85 175.38 207.85 170.42 351.13"/><line class="cls-3" x1="354.43" y1="127.24" x2="388.2" y2="95.36"/><line class="cls-3" x1="220.99" y1="122.43" x2="187.22" y2="90.54"/><circle class="cls-4" cx="335.63" cy="159.98" r="12.39"/><circle class="cls-4" cx="244.59" cy="159.98" r="12.39"/></g></svg>