<svg xmlns="http://www.w3.org/2000/svg" viewBox="0 0 562.24 488.06"><defs><style>.cls-1{fill:#efba95;}.cls-2{fill:#ff6d00;}.cls-3{fill:#0092ff;}</style></defs><g id="Layer_2" data-name="Layer 2"><circle class="cls-1" cx="346.69" cy="130.49" r="130.49"/><circle class="cls-1" cx="229.89" cy="164.26" r="101.61"/><circle class="cls-1" cx="94.99" cy="259.25" r="94.99"/><circle class="cls-1" cx="178.98" cy="357.07" r="130.49"/><circle class="cls-1" cx="460.63" cy="299.51" r="101.61"/><circle class="cls-1" cx="341.37" cy="393.07" r="94.99"/><circle class="cls-1" cx="454.01" cy="209.53" r="94.99"/><circle class="cls-1" cx="309.47" cy="265.86" r="94.99"/></g><g id="Layer_3" data-name="Layer 3"><path class="cls-2" d="M841.28,1064.72s29.41.92,34.76,7.35S909.9,1152,909.9,1152s10.65,1.74,30.3-23c14.5-18.23,15.15-53.28,41-55.12,7.33-.52,42.19,32.34,46.12,39.69,8.89,16.64-81.77-225.35-100.48-222.55s-27.62,120.32-42.77,130.46S841.28,1064.72,841.28,1064.72Z" transform="translate(-615.09 -760.55)"/><path class="cls-3" d="M822.64,1028.78l22.4,10.38-29,30.26s-33.15-.86-40.06-6.92-18.75-13.4-18.75-13.4,48.36-8.21,54.28-11.67A64.42,64.42,0,0,0,822.64,1028.78Z" transform="translate(-615.09 -760.55)"/><path class="cls-3" d="M829.2,1018.89s13.23-20.47,15.84-23.06,18.85-9.42,19.72-12.88S922,893.63,922,893.63s-14.45,53.63-28.29,84.06c-6.52,14.33-11.56,21-18.09,31-8.56,13-15.71,13.05-17.76,14.07a9.42,9.42,0,0,0-5.32,10.37Z" transform="translate(-615.09 -760.55)"/></g></svg>