<svg xmlns="http://www.w3.org/2000/svg" viewBox="0 0 562.24 488.06"><defs><style>.cls-1{fill:#96ede5;}.cls-2{fill:#00dbff;}.cls-2,.cls-3{stroke:#fff;stroke-miterlimit:10;}.cls-3{fill:#e8a718;}</style></defs><g id="Layer_2" data-name="Layer 2"><circle class="cls-1" cx="346.69" cy="130.49" r="130.49"/><circle class="cls-1" cx="229.89" cy="164.26" r="101.61"/><circle class="cls-1" cx="94.99" cy="259.25" r="94.99"/><circle class="cls-1" cx="178.98" cy="357.07" r="130.49"/><circle class="cls-1" cx="460.63" cy="299.51" r="101.61"/><circle class="cls-1" cx="341.37" cy="393.07" r="94.99"/><circle class="cls-1" cx="454.01" cy="209.53" r="94.99"/><circle class="cls-1" cx="309.47" cy="265.86" r="94.99"/></g><g id="Layer_4" data-name="Layer 4"><path class="cls-2" d="M951.11,905.69c-4.08-3.44-24.05-9-43.45-9.61-22.34-.73-44.28,3.76-46.51,4.51-1.51.5-13.88,4.36-17.14,13.13-5.69,15.32-2.72,39-2.72,39h61.43v8.78H811.27s-35.56.46-35.1,55.88,22.63,66,27.71,66.5,28.64,0,28.64,0-2-40.8,8.32-49.64c9.93-8.52,18.46-15.27,24.47-15.83s72,0,72,0,14.32-2.88,19.4-9.8,7.85-12.94,7.85-17.09V925.52S959.88,913.08,951.11,905.69Zm-86.3,26.58a7.71,7.71,0,0,1-7.58-7.57c-.18-4.09,3.61-7.58,7.58-7.58a7.7,7.7,0,0,1,7.57,7.58C872.56,928.79,868.77,932.27,864.81,932.27Z" transform="translate(-615.09 -760.55)"/><path class="cls-3" d="M855.29,1139.15c4.07,3.43,24.05,9,43.44,9.6,22.34.74,44.29-3.76,46.51-4.5,1.52-.51,13.88-4.37,17.14-13.14,5.7-15.31,2.72-39,2.72-39H903.68v-8.77h91.44s35.56-.47,35.1-55.89-22.63-66-27.71-66.5-28.63,0-28.63,0,2,40.8-8.32,49.65c-9.93,8.52-18.47,15.26-24.47,15.83s-72.05,0-72.05,0-14.32,2.87-19.4,9.8-7.85,12.93-7.85,17.09v66S846.51,1131.76,855.29,1139.15Zm86.3-26.59a7.7,7.7,0,0,1,7.57,7.58c.18,4.09-3.61,7.57-7.57,7.57a7.71,7.71,0,0,1-7.58-7.57C933.83,1116.05,937.63,1112.56,941.59,1112.56Z" transform="translate(-615.09 -760.55)"/></g></svg>