<svg xmlns="http://www.w3.org/2000/svg" viewBox="0 0 562.24 488.06"><defs><style>.cls-1{fill:#283a68;}.cls-2{fill:#131b33;}.cls-3{fill:#fff;}</style></defs><g id="Layer_2" data-name="Layer 2"><circle class="cls-1" cx="346.69" cy="130.49" r="130.49"/><circle class="cls-1" cx="229.89" cy="164.26" r="101.61"/><circle class="cls-1" cx="94.99" cy="259.25" r="94.99"/><circle class="cls-1" cx="178.98" cy="357.07" r="130.49"/><circle class="cls-1" cx="460.63" cy="299.51" r="101.61"/><circle class="cls-1" cx="341.37" cy="393.07" r="94.99"/><circle class="cls-1" cx="454.01" cy="209.53" r="94.99"/><circle class="cls-1" cx="309.47" cy="265.86" r="94.99"/></g><g id="Layer_8" data-name="Layer 8"><rect class="cls-2" x="157.43" y="125.3" width="266.9" height="266.9" rx="54.25"/></g><g id="Layer_6" data-name="Layer 6"><rect class="cls-3" x="206.48" y="182.42" width="172.58" height="125.35" rx="62.67"/><path class="cls-3" d="M287.06,298.86h11.41a27.28,27.28,0,0,1,27.28,27.28v65.6a0,0,0,0,1,0,0h-66a0,0,0,0,1,0,0v-65.6A27.28,27.28,0,0,1,287.06,298.86Z"/><path class="cls-3" d="M955.35,952a79.57,79.57,0,0,1,13.26-11.43A39.7,39.7,0,0,1,982,935.43s2,15.73,1.23,19.5-6.65,13.56-6.65,13.56" transform="translate(-615.09 -760.55)"/><path class="cls-3" d="M863.69,952a79.75,79.75,0,0,0-13.25-11.43,39.81,39.81,0,0,0-13.4-5.16s-2,15.73-1.22,19.5,6.65,13.56,6.65,13.56" transform="translate(-615.09 -760.55)"/><path class="cls-3" d="M877.68,1096.76s-12.08,8.59-23.06,7.1S839,1083.28,829,1082.28c-5-.5-6.33.76-5.15,2.26s4.9,3.23,8.15,7.72c6.49,9,15.67,24.06,26.15,22.56a71,71,0,0,0,19.53-6.08Z" transform="translate(-615.09 -760.55)"/></g></svg>